<mxfile host="app.diagrams.net" modified="2023-06-25T03:48:57.698Z" agent="Mozilla/5.0 (Macintosh; Intel Mac OS X 10_15_7) AppleWebKit/537.36 (KHTML, like Gecko) Chrome/114.0.0.0 Safari/537.36" version="21.3.4" etag="rD-UjbSLTmoK2elx2W4L" type="github">
  <diagram name="第 1 页" id="vu-kXdEc_11bXvfYpRfM">
    <mxGraphModel>
      <root>
        <mxCell id="0" />
        <mxCell id="1" parent="0" />
      </root>
    </mxGraphModel>
  </diagram>
</mxfile>
